PathFileType	4	(X/Y/Z)	/Users/niels/Desktop/University/Third Semester/Perception and Action/Exam/Gymnastics Motion Tracking/Code for Gym Tracking/Analyzed Data/Start Salto/stsalto_good_id8_2_Sports2D/stsalto_good_id8_2_Sports2D_px_person00.trc
DataRate	CameraRate	NumFrames	NumMarkers	Units	OrigDataRate	OrigDataStartFrame	OrigNumFrames
29.788732394366196	29.788732394366196	11	22	m	29.788732394366196	124	142
Frame#	Time	Hip			RHip			RKnee			RAnkle			RBigToe			RSmallToe			RHeel			LHip			LKnee			LAnkle			LBigToe			LSmallToe			LHeel			Neck			Head			Nose			RShoulder			RElbow			RWrist			LShoulder			LElbow			LWrist		
		X1	Y1	Z1	X2	Y2	Z2	X3	Y3	Z3	X4	Y4	Z4	X5	Y5	Z5	X6	Y6	Z6	X7	Y7	Z7	X8	Y8	Z8	X9	Y9	Z9	X10	Y10	Z10	X11	Y11	Z11	X12	Y12	Z12	X13	Y13	Z13	X14	Y14	Z14	X15	Y15	Z15	X16	Y16	Z16	X17	Y17	Z17	X18	Y18	Z18	X19	Y19	Z19	X20	Y20	Z20	X21	Y21	Z21	X22	Y22	Z22
124	4.162647754137116	1.6816546863878898	-0.4716799238141502	0.0	1.6859222862051915	-0.48563375220758115	0.0	1.635214846817956	-0.6103376017404152	0.0	1.5860186966262313	-0.721591915683201	0.0	1.5970616446549895	-0.7747609728858934	0.0	1.5906458745569219	-0.7721588844515075	0.0	1.571383633047332	-0.7315813232590916	0.0	1.6756742279939205	-0.45996632407833465	0.0	1.5406149909108537	-0.4884705632029624	0.0	1.486594486062191	-0.3951201325589183	0.0	1.4295160542467862	-0.4147908430028455	0.0	1.4297545497836797	-0.4104912561591936	0.0	1.4749077800209716	-0.37504966367341064	0.0	1.8429748582903744	-0.5731790708759597	0.0	1.901860466564751	-0.6410427116441741	0.0	1.8530871725354732	-0.626870853106609	0.0	1.8455547354117678	-0.5719605739849561	0.0	1.8285535526520158	-0.6603563347689402	0.0	1.83264477804256	-0.7472679370001647	0.0	1.817262855117673	-0.5672918267623701	0.0	1.784180740556792	-0.6509255502457243	0.0	1.7444648156556692	-0.7236915986269998	0.0
125	4.196217494089835	1.6999147267650883	-0.4696560992159774	0.0	1.7032756317157545	-0.4839443777954748	0.0	1.6491186235750597	-0.6060830156606831	0.0	1.5856916593660206	-0.7086525243376139	0.0	1.5905851447781127	-0.7636810342733166	0.0	1.5850758976023502	-0.7602972589399929	0.0	1.5707333819356328	-0.7179364687460182	0.0	1.694695259982515	-0.45858080525622696	0.0	1.5570214929300241	-0.4663764601035544	0.0	1.5221390831445694	-0.36544310740535196	0.0	1.4663071996231742	-0.3733285716209557	0.0	1.4648413161027685	-0.36992834529930985	0.0	1.5137027343363425	-0.3451914131055881	0.0	1.85015113479527	-0.5870998829028327	0.0	1.9029527781604738	-0.6588571015487684	0.0	1.8549335473738597	-0.641418544521576	0.0	1.8537482895157862	-0.5824416996721383	0.0	1.831381884940565	-0.668945420547884	0.0	1.8294189483628083	-0.7548006889622616	0.0	1.8200171121341187	-0.5813985339903146	0.0	1.7824397113757973	-0.6593562618676603	0.0	1.7449796005842872	-0.7303465362775368	0.0
126	4.229787234042553	1.7204244514410478	-0.46780299982957013	0.0	1.7232392260737988	-0.4819983684733117	0.0	1.664749461594409	-0.6013159793853324	0.0	1.5858562664974376	-0.6898047621226975	0.0	1.583357742872059	-0.7451653372040485	0.0	1.5788422924637977	-0.7409444332423262	0.0	1.5707223314789236	-0.6976921012822291	0.0	1.7158314535851003	-0.457657935851127	0.0	1.5792834873241526	-0.4431637003338089	0.0	1.5643344991318295	-0.3399079030957965	0.0	1.5140446603839701	-0.3358513295931301	0.0	1.5096649547228802	-0.3335138586349058	0.0	1.5609887908732236	-0.32001617139617256	0.0	1.8561199145115483	-0.6019246996632625	0.0	1.9027654538728016	-0.6772293637468222	0.0	1.8554665655587044	-0.656698930501089	0.0	1.8611614662736191	-0.5938562433080927	0.0	1.8334896404861525	-0.677747783247286	0.0	1.8256469508588182	-0.7619419612346907	0.0	1.8210321467077888	-0.595949879227317	0.0	1.7802439180745977	-0.6676506673375712	0.0	1.7446116751247638	-0.7367014223675997	0.0
127	4.263356973995272	1.7438458538078698	-0.466153976078599	0.0	1.7462445126136683	-0.47968804487837097	0.0	1.6818228120391425	-0.5952234495786093	0.0	1.5886827029881787	-0.6629734019156318	0.0	1.5775905456304407	-0.7163769040790078	0.0	1.574111270318222	-0.7114243495017845	0.0	1.5736468850405432	-0.6686222163583241	0.0	1.739731302846514	-0.4570528912051345	0.0	1.6085662104571872	-0.42020416416112744	0.0	1.6120700734441071	-0.32043972383616554	0.0	1.571760644786476	-0.30520347876776804	0.0	1.5642857346925523	-0.3039766729236255	0.0	1.6167663218916968	-0.30146532248010566	0.0	1.8606408960178833	-0.6174260580273732	0.0	1.9005181382310186	-0.6962821310410439	0.0	1.8541737710108404	-0.6718254532771503	0.0	1.8678428113336272	-0.6060114569328617	0.0	1.8347554999195794	-0.686431285581657	0.0	1.8216124087642998	-0.7682056967219872	0.0	1.8216845857870327	-0.6105567635514457	0.0	1.7784107398589672	-0.6750995492687378	0.0	1.7433111685580895	-0.7419900139019125	0.0
128	4.2969267139479905	1.7709264809449135	-0.4652327916199717	0.0	1.7728425055676846	-0.4774499019323429	0.0	1.7007063529344961	-0.5864593875230307	0.0	1.5975955619246014	-0.6261687160625037	0.0	1.5769138120994328	-0.6746334244077021	0.0	1.574651548782151	-0.6693310044066288	0.0	1.5830850652485442	-0.6289683538399335	0.0	1.766896840862516	-0.4571081505423808	0.0	1.645597729192207	-0.3995790479763606	0.0	1.6636616170051164	-0.308467328054961	0.0	1.6371340004483357	-0.2829657428375157	0.0	1.629260010728757	-0.28274543068457325	0.0	1.679676942248114	-0.29054346103714845	0.0	1.863725180125411	-0.6332837552932571	0.0	1.895246109597731	-0.7154896204176106	0.0	1.8509773260567834	-0.6858939019234482	0.0	1.8740251862384667	-0.6188487682512143	0.0	1.8354782270365648	-0.694386897431522	0.0	1.817737046021118	-0.7730507951681609	0.0	1.8233405119351496	-0.6249722747074679	0.0	1.777278897085505	-0.6812821066160542	0.0	1.7412789970563827	-0.7456738709897379	0.0
129	4.330496453900709	1.8016878473465332	-0.46661982016909087	0.0	1.802929564540924	-0.4766248785265236	0.0	1.7222978731374752	-0.5736419070488822	0.0	1.6168913285274353	-0.5787095022505623	0.0	1.5861936685230977	-0.6187408669896799	0.0	1.5855133527823957	-0.6137733233462358	0.0	1.6036430827961903	-0.5783542052276603	0.0	1.7970926756235563	-0.4594622285139855	0.0	1.689694094239369	-0.3845149914081036	0.0	1.7161269021814518	-0.30498124920252295	0.0	1.70518616386659	-0.26999001960586927	0.0	1.7046529080625186	-0.27028022751368924	0.0	1.745035793680526	-0.28731137644998916	0.0	1.8655785110057155	-0.6489592442711039	0.0	1.886168252534098	-0.7334782550629874	0.0	1.8462393725612616	-0.6980656357918602	0.0	1.8798962992225647	-0.6324296677206421	0.0	1.836335778127484	-0.7009137030355498	0.0	1.814431460713081	-0.7760375231002651	0.0	1.8263906149301883	-0.6390874137672811	0.0	1.7767310955005053	-0.6861790332093889	0.0	1.7389365574833744	-0.7476940584067859	0.0
130	4.364066193853428	1.8343957660957408	-0.4732560832382952	0.0	1.8348095084532199	-0.47958012406448886	0.0	1.7474546634508223	-0.5559277700083616	0.0	1.6506100301949567	-0.5227971769956014	0.0	1.6105856804832563	-0.551013326324894	0.0	1.611900998119445	-0.5470137083114978	0.0	1.6396120674037677	-0.519056844584908	0.0	1.8284299189987352	-0.4674024996058513	0.0	1.7372895076258075	-0.37978912102085743	0.0	1.765068151647341	-0.30974409159460803	0.0	1.7668966703175428	-0.2674833268478951	0.0	1.7880811956285434	-0.26686712499756543	0.0	1.8037157209211498	-0.29117767272865036	0.0	1.866445711619963	-0.6634461432164251	0.0	1.8735783508383688	-0.7478657897320442	0.0	1.8405204334845018	-0.7073394380230106	0.0	1.8853336753336531	-0.6466318298703692	0.0	1.8381465683012548	-0.705535017940125	0.0	1.8119463111647922	-0.7770166737297823	0.0	1.8300683749878466	-0.6526169470384857	0.0	1.7765696208066877	-0.6900451243726566	0.0	1.7366842204686654	-0.7483290039815633	0.0
131	4.397635933806146	1.8655106143761684	-0.4891021091040072	0.0	1.8652706045695049	-0.4892576262470825	0.0	1.7768234695933762	-0.5332815185614204	0.0	1.7011134932867578	-0.46342319902271584	0.0	1.6536521537791586	-0.47751366960648284	0.0	1.6572218969319596	-0.4744437016953615	0.0	1.6931348117270373	-0.4557826313643088	0.0	1.857286300258608	-0.485459249680084	0.0	1.7817036960882553	-0.39117516155327375	0.0	1.8080455330177982	-0.31969990459750924	0.0	1.8111392781559859	-0.27658550668677445	0.0	1.875063310701824	-0.27238380637617005	0.0	1.8449252942776497	-0.3006912770068761	0.0	1.8665712395292857	-0.6754304978659759	0.0	1.8592722962435364	-0.7556433499870006	0.0	1.8344937329814008	-0.7125068711332694	0.0	1.8900382300553655	-0.6610023634465824	0.0	1.8416141508430772	-0.7083990163996612	0.0	1.8103019066111972	-0.7762733297886122	0.0	1.8329770334807929	-0.6649324830224937	0.0	1.7766533143205803	-0.6933435638898687	0.0	1.7346688655002422	-0.7478852153113607	0.0
132	4.431205673758865	1.8911234201910183	-0.5177887558882024	0.0	1.891026315152771	-0.508005619895678	0.0	1.8109655485523841	-0.506356727024217	0.0	1.7680597218750966	-0.4060583951698562	0.0	1.715513709105198	-0.40522416991575	0.0	1.7213066471494682	-0.40216772481902674	0.0	1.7632892447885633	-0.39349346994805895	0.0	1.8797944515706975	-0.5179484800573763	0.0	1.8153126651421694	-0.42351285660063276	0.0	1.8491762671095535	-0.3288390838223768	0.0	1.8304909382407697	-0.2967922507394821	0.0	1.9616797463398268	-0.28547747830736014	0.0	1.861990885633571	-0.3135788264806028	0.0	1.866152439066175	-0.683815019942589	0.0	1.8456090808282337	-0.7545830621808144	0.0	1.8289350561387936	-0.7125926686064833	0.0	1.8939590426568282	-0.6749177321372556	0.0	1.8469841479167604	-0.7104210951779452	0.0	1.809213729593208	-0.7744421564340267	0.0	1.8336899118084866	-0.6752468914663742	0.0	1.776992703216163	-0.6966154794423285	0.0	1.7328772204220169	-0.7464043236532383	0.0
133	4.464775413711584	1.9089540286986726	-0.5606201778746428	0.0	1.9103926327231986	-0.5362974390883344	0.0	1.8500074874669348	-0.47620707123683065	0.0	1.848428538760943	-0.35417702743902285	0.0	1.7927167508433086	-0.33869283174975934	0.0	1.8004382633796712	-0.33431048636742966	0.0	1.846619129417173	-0.33529103305303304	0.0	1.893911099595162	-0.5666401131441288	0.0	1.8331532279861127	-0.47810194974571824	0.0	1.8973207504081293	-0.3311426948437134	0.0	1.8252424800996245	-0.32560211867004185	0.0	2.046120757196148	-0.30377302804392353	0.0	1.8556569543750911	-0.3276669733218678	0.0	1.8652872890371757	-0.6882012745528803	0.0	1.8341668895991379	-0.7445596056475356	0.0	1.8245385332596937	-0.7074881364038311	0.0	1.8973704694376474	-0.687887327935406	0.0	1.8538562203300424	-0.7128278074919044	0.0	1.8081705109835433	-0.7721791553855069	0.0	1.8313399288688763	-0.6830224986963331	0.0	1.777804916830338	-0.700221430560483	0.0	1.7313517141024926	-0.7436572347049529	0.0
134	4.498345153664302	1.9192477007973463	-0.615703871978767	0.0	1.9237790284324272	-0.5725060195265723	0.0	1.8932188219341473	-0.4439997025296295	0.0	1.9377824367291734	-0.3084688381603354	0.0	1.8800397147079029	-0.27898266459417326	0.0	1.8892907702440118	-0.2720786010177959	0.0	1.9385809116535857	-0.28188653851986684	0.0	1.9001995060988277	-0.6295746641105694	0.0	1.8351800340187336	-0.5516319911668786	0.0	1.9586330533781529	-0.3239827254955978	0.0	1.8015326567141499	-0.35974381560370544	0.0	2.1282080326071906	-0.3248816420231299	0.0	1.8319908562085094	-0.3416333041692897	0.0	1.8640441613561618	-0.6890725349960944	0.0	1.825284669609114	-0.7274371554600271	0.0	1.821595212189975	-0.6981251163304228	0.0	1.90059592615809	-0.6997825544474555	0.0	1.8615209498696532	-0.7164199494901267	0.0	1.8067563391003627	-0.7699038421132578	0.0	1.8259839074480733	-0.6883299555542417	0.0	1.7792815087352247	-0.7042433634326285	0.0	1.7301581440099971	-0.7395300159229321	0.0
